# xmcd
#
# Track frame offsets:
#	150
#	14199
#	31801
#	44331
#	66071
#	79267
#	93482
#	114211
#	133109
#	145754
#	163014
#
# Disc length: 2480 seconds
#
# Revision: 2105577685
# Processed by: cddbd v1.5.2PL0 Copyright (c) Steve Scherf et al.
# Submitted via: EZCDAudioConverter 8.1.0.1
#
DISCID=9109ae0b
DTITLE=Danny Barnes - Pizza Box
DYEAR=2009
DGENRE=Country
TTITLE0=Caveman
TTITLE1=The Road
TTITLE2=Pizza Box
TTITLE3=Sleep
TTITLE4=Miss Misty Swan
TTITLE5=TSA
TTITLE6=Bone
TTITLE7=Overdue
TTITLE8=Charlie
TTITLE9=Broken Clock
TTITLE10=Sparta. TN
EXTD=
EXTT0=
EXTT1=
EXTT2=
EXTT3=
EXTT4=
EXTT5=
EXTT6=
EXTT7=
EXTT8=
EXTT9=
EXTT10=
PLAYORDER=
